<svg xmlns="http://www.w3.org/2000/svg" width="33.667" height="14.655" viewBox="0 0 33.667 14.655">
  <path id="cars-icon" d="M25.6.258h3.562c1.1,0,1.726.929,1.992,1.992l.63,2.578.367-.7c1.9-.11,2.074,1,.06,1.951l.334.493c1.326,1.37,1.2,2.721.995,6.085v1.1a.622.622,0,0,1-.622.622h-2.66a.622.622,0,0,1-.622-.622v-.482h-.986V12.7c.049-.8.093-1.5.115-2.134l1.57-.014a1.063,1.063,0,0,0,.529-.145.9.9,0,0,0,.321-.356l.255-.619c.189-.482.038-.715-.518-.655l-2.151.26a5.444,5.444,0,0,0-.726-2.589,3.178,3.178,0,0,0,.384-.523h0a2.891,2.891,0,0,0,.2-.43h2.23L30.21,2.825C30.035,2,29.528,1.3,28.69,1.3H26.026A5.967,5.967,0,0,0,25.6.258ZM8.566,5.956c-1.918-.97-1.69-2.052.227-1.94l.43.806.885-2.74C10.456.984,11.037,0,12.174,0H22.191c1.137,0,1.789.964,2.066,2.066l.674,2.671.384-.721c1.973-.115,2.151,1.033.06,2.022l.34.521c1.37,1.411,1.244,2.819,1.03,6.3v1.145a.647.647,0,0,1-.644.647H23.333a.647.647,0,0,1-.644-.647v-.515H10.98v.518a.647.647,0,0,1-.647.647H7.593a.647.647,0,0,1-.647-.647V12.42c-.208-2.674-.5-5.085,1.625-6.463Zm3.518,3.173-2.447-.31C9.059,8.756,8.9,9,9.089,9.5l.274.644a.921.921,0,0,0,.329.367,1.121,1.121,0,0,0,.548.153l2.192.016c.526,0,.753-.211.589-.7a1.178,1.178,0,0,0-.932-.852Zm9.5,0,2.447-.31c.575-.063.732.181.548.677l-.277.641a.926.926,0,0,1-.332.367,1.112,1.112,0,0,1-.548.153l-2.192.016c-.529,0-.756-.211-.592-.7a1.181,1.181,0,0,1,.934-.852ZM10.136,5.43h13.8l-.652-2.773c-.2-.844-.723-1.562-1.589-1.562H12.549c-.866,0-1.318.737-1.575,1.562L10.136,5.43ZM8.807.258h-4.3c-1.1,0-1.726.929-1.992,1.992L1.875,4.828l-.367-.7c-1.9-.11-2.074,1-.06,1.951l-.326.493c-1.326,1.37-1.2,2.74-.995,6.1v1.1a.622.622,0,0,0,.622.622h2.66a.622.622,0,0,0,.622-.622v-.493h.992v-.847l-.016-.2c-.044-.57-.09-1.126-.115-1.669l-1.57-.014a1.063,1.063,0,0,1-.526-.132.9.9,0,0,1-.332-.37l-.255-.619c-.178-.482-.019-.715.529-.655L4.9,9.041a6.008,6.008,0,0,1,.874-2.973c-.047-.068-.085-.137-.123-.2a3.11,3.11,0,0,1-.17-.37H2.82l.644-2.674C3.64,2,4.146,1.3,4.985,1.3h3.37A7.307,7.307,0,0,1,8.807.258Z" transform="translate(0.002)" fill="#6046c1" fill-rule="evenodd"/>
</svg>
