<svg id="Group_29" data-name="Group 29" xmlns="http://www.w3.org/2000/svg" width="459.207" height="503.288" viewBox="0 0 459.207 503.288">
  <path id="Path_34" data-name="Path 34" d="M8.567,0H450.64c4.732,0,8.567,6.242,8.567,13.941V489.347c0,7.7-3.836,13.941-8.567,13.941H8.567C3.836,503.288,0,497.046,0,489.347V13.941C0,6.242,3.836,0,8.567,0Z" transform="translate(0 0)" fill="#2e148f"/>
  <text id="Hosting_Solution" data-name="Hosting Solution" transform="translate(105 161.471)" fill="#fff" font-size="25" font-family="Poppins-SemiBold, Poppins" font-weight="600"><tspan x="0" y="0">Hosting Solution</tspan></text>
  <g id="Group_26" data-name="Group 26" transform="translate(32 229.719)">
    <text id="Browse_our_search" data-name="Browse our search" transform="translate(79 19)" fill="#fff" font-size="18" font-family="Poppins-Regular, Poppins"><tspan x="0" y="0">Browse our search</tspan></text>
    <text id="illustrations_and_graphic_elements" data-name="illustrations, and graphic elements" transform="translate(6 61.573)" fill="#fff" font-size="18" font-family="Poppins-Regular, Poppins"><tspan x="0" y="0">illustrations, and graphic elements</tspan></text>
    <text id="Want_more_inspiration" data-name="Want more inspiration" transform="translate(62 146.022)" fill="#fff" font-size="18" font-family="Poppins-Regular, Poppins"><tspan x="0" y="0">Want more inspiration</tspan></text>
    <text id="Customize_this_Soccer_End_of_Game." data-name="Customize this Soccer End of Game." transform="translate(0 104.147)" fill="#fff" font-size="18" font-family="Poppins-Regular, Poppins"><tspan x="0" y="0">Customize this Soccer End of Game.</tspan></text>
    <text id="Kicky_to_include_your_team_s" data-name="Kicky to include your team&apos;s" transform="translate(37 188.596)" fill="#fff" font-size="18" font-family="Poppins-Regular, Poppins"><tspan x="0" y="0">Kicky to include your team&apos;s</tspan></text>
  </g>
  <g id="b-chart-3" transform="translate(182 48.729)">
    <rect id="Rectangle_15" data-name="Rectangle 15" width="14.651" height="25.823" transform="translate(0 32.105)" fill="#fff" stroke="#fff" stroke-linecap="square" stroke-width="3"/>
    <rect id="Rectangle_16" data-name="Rectangle 16" width="14.651" height="45.365" transform="translate(27.47 12.563)" fill="#fff" stroke="#fff" stroke-linecap="square" stroke-width="3"/>
    <rect id="Rectangle_17" data-name="Rectangle 17" width="17.398" height="57.928" transform="translate(51.277)" fill="#fff" stroke="#fff" stroke-linecap="square" stroke-width="3"/>
    <rect id="Rectangle_18" data-name="Rectangle 18" width="17.398" height="32.105" transform="translate(77.831 25.823)" fill="#fff" stroke="#fff" stroke-linecap="square" stroke-width="3"/>
  </g>
</svg>
