<svg id="instagram" xmlns="http://www.w3.org/2000/svg" width="43.18" height="43.182" viewBox="0 0 43.18 43.182">
  <path id="Path_41" data-name="Path 41" d="M14.649,2.152A15.749,15.749,0,0,0,9.411,3.165a10.589,10.589,0,0,0-3.82,2.5A10.583,10.583,0,0,0,3.109,9.488a15.854,15.854,0,0,0-.993,5.243c-.1,2.3-.123,3.038-.113,8.9s.037,6.6.148,8.9A15.8,15.8,0,0,0,3.164,37.77a11.033,11.033,0,0,0,6.326,6.3,15.844,15.844,0,0,0,5.242.993c2.3.1,3.038.123,8.9.113s6.6-.037,8.9-.147a15.792,15.792,0,0,0,5.236-1.013,11.033,11.033,0,0,0,6.3-6.327,15.8,15.8,0,0,0,.993-5.24c.1-2.3.125-3.04.113-8.9s-.037-6.6-.147-8.9a15.781,15.781,0,0,0-1.013-5.239,10.61,10.61,0,0,0-2.5-3.82,10.536,10.536,0,0,0-3.829-2.481,15.773,15.773,0,0,0-5.242-.993c-2.3-.1-3.038-.125-8.9-.114s-6.6.037-8.9.148M14.9,41.179a11.96,11.96,0,0,1-4.01-.734,6.728,6.728,0,0,1-2.486-1.61,6.639,6.639,0,0,1-1.619-2.48,11.95,11.95,0,0,1-.751-4.008c-.106-2.275-.13-2.958-.142-8.722S5.9,17.179,6,14.9a11.929,11.929,0,0,1,.734-4.01,6.7,6.7,0,0,1,1.61-2.486,6.652,6.652,0,0,1,2.48-1.619,11.938,11.938,0,0,1,4.007-.751c2.276-.108,2.959-.13,8.722-.142S30,5.9,32.282,6a11.908,11.908,0,0,1,4.008.734A7.149,7.149,0,0,1,40.4,10.83a11.879,11.879,0,0,1,.749,4c.108,2.276.133,2.959.143,8.722S41.28,30,41.18,32.28a12.021,12.021,0,0,1-.734,4.011A7.152,7.152,0,0,1,36.354,40.4a11.976,11.976,0,0,1-4,.751c-2.276.106-2.959.13-8.724.142s-6.446-.011-8.722-.109M32.5,12.051a2.591,2.591,0,1,0,2.586-2.6h0a2.591,2.591,0,0,0-2.586,2.6m-20,11.56A11.087,11.087,0,1,0,23.57,12.5,11.085,11.085,0,0,0,12.5,23.611M16.4,23.6a7.2,7.2,0,1,1,7.211,7.183A7.2,7.2,0,0,1,16.4,23.6h0" transform="translate(-2 -1.999)" fill="#212121"/>
</svg>
