<svg id="parking-area-icon" xmlns="http://www.w3.org/2000/svg" width="73.334" height="62.051" viewBox="0 0 73.334 62.051">
  <path id="Path_8" data-name="Path 8" d="M9.639,0H48.654a9.663,9.663,0,0,1,9.639,9.639V30.913H44.944a6.165,6.165,0,0,0-4.854,2.263,10.186,10.186,0,0,0-1.9,3.6l-.252.783a6.066,6.066,0,0,0-2.561.842,4.308,4.308,0,0,0-1.959,2.713,4.389,4.389,0,0,0,.458,3.163l.072.129c-1.746,2.889-1.468,6.372-1.167,10.145l.024.3,0,.156v1.723H9.639A9.663,9.663,0,0,1,0,47.085V9.639A9.663,9.663,0,0,1,9.639,0Z" fill="#6046c1"/>
  <path id="Path_9" data-name="Path 9" d="M73.308,32.415H37.488a5.1,5.1,0,0,0-5.073,5.073V71.74a5.1,5.1,0,0,0,5.073,5.073H58.809c0,.58.027,1.173.062,1.775H37.488A6.871,6.871,0,0,1,30.64,71.74V37.488a6.871,6.871,0,0,1,6.848-6.848h35.82a6.871,6.871,0,0,1,6.848,6.848V57.165H78.38V37.488a5.093,5.093,0,0,0-5.072-5.073Z" transform="translate(-26.251 -26.251)" fill="#fff"/>
  <path id="Path_10" data-name="Path 10" d="M138.779,125.358v-5.364h6.289a4.239,4.239,0,0,0,1.954-.392,2.5,2.5,0,0,0,1.094-1.071,3.35,3.35,0,0,0,.357-1.565,4.515,4.515,0,0,0-.357-1.79,2.962,2.962,0,0,0-1.094-1.336,3.411,3.411,0,0,0-1.954-.508h-3.81v20.429H134.6v-25.8h10.469a11.692,11.692,0,0,1,5.413,1.173,8.559,8.559,0,0,1,3.508,3.187,8.677,8.677,0,0,1,1.233,4.609,7.907,7.907,0,0,1-1.233,4.409,8.154,8.154,0,0,1-3.508,2.956,12.6,12.6,0,0,1-5.413,1.064Zm16.632.315a6.165,6.165,0,0,1,4.854-2.263h17.162a6.312,6.312,0,0,1,4.6,1.916,8.933,8.933,0,0,1,2.226,4.175l.152.612a5.785,5.785,0,0,1,2.209.821,4.286,4.286,0,0,1,1.922,2.809,4.424,4.424,0,0,1-.539,3.147,5.352,5.352,0,0,1-.48.695c1.4,2.527,1.232,5.272.927,10.218-.043.7-.014,1.431-.014,2.138a4.636,4.636,0,0,1-4.609,4.608H179.3a4.562,4.562,0,0,1-2.862-1.01,3.531,3.531,0,0,1-.4-.341,4.677,4.677,0,0,1-.477-.559H160.981a4.534,4.534,0,0,1-.476.559l-.007-.007-.007.007a4.58,4.58,0,0,1-3.244,1.351H152.73a4.572,4.572,0,0,1-2.863-1.01,3.687,3.687,0,0,1-.4-.341,4.6,4.6,0,0,1-1.351-3.257V147.5l0-.156-.024-.3c-.3-3.773-.579-7.256,1.167-10.145l-.072-.129a4.389,4.389,0,0,1-.458-3.163A4.308,4.308,0,0,1,150.7,130.9a6.066,6.066,0,0,1,2.561-.842l.252-.783a10.186,10.186,0,0,1,1.9-3.6Z" transform="translate(-115.321 -92.497)" fill="#fff"/>
  <path id="Path_11" data-name="Path 11" d="M261.026,240.61c-1.865,0-2.814,1.613-3.386,3.392l-1.452,4.517-.7-1.321c-3.15-.186-3.509,1.59-.375,3.183-3.49,2.26-3.008,6.216-2.665,10.6a1.566,1.566,0,0,0-.011.165v2.442a1.063,1.063,0,0,0,1.06,1.058h4.517a1.063,1.063,0,0,0,1.06-1.058v-.851H279v.851a1.062,1.062,0,0,0,1.058,1.058h4.519a1.061,1.061,0,0,0,1.058-1.058v-1.879c.352-5.718.563-8.028-1.689-10.344l-.557-.852c3.425-1.626,3.137-3.506-.1-3.317l-.627,1.182L281.575,244c-.45-1.808-1.524-3.389-3.387-3.389Zm-1.381,3.029a1.977,1.977,0,0,1,.51-.649,2.078,2.078,0,0,1,1.487-.6H277.38c1.421,0,2.283,1.2,2.584,2.582l1.093,4.545H257.694v0l1.365-4.545A6.194,6.194,0,0,1,259.645,243.639Zm1.232,11.944-4.013-.5c-.947-.106-1.2.294-.879,1.11l.434,1.053a1.521,1.521,0,0,0,.543.606,1.842,1.842,0,0,0,.9.248l3.579.029c.864,0,1.239-.348.968-1.142a1.941,1.941,0,0,0-1.531-1.4Zm16.311,0,4.013-.5c.948-.106,1.2.294.879,1.11l-.434,1.053a1.51,1.51,0,0,1-.543.606,1.841,1.841,0,0,1-.9.248l-3.579.029c-.865,0-1.239-.348-.968-1.142a1.939,1.939,0,0,1,1.53-1.4Z" transform="translate(-216.082 -206.148)" fill="#1a1a1a" fill-rule="evenodd"/>
</svg>
