<svg id="digital-image-2" xmlns="http://www.w3.org/2000/svg" width="78.308" height="57.491" viewBox="0 0 78.308 57.491">
  <path id="Ellipse_8" data-name="Ellipse 8" d="M7.106,2.339a5.22,5.22,0,0,1,1.773.306,4.7,4.7,0,0,1,1.451.834,3.955,3.955,0,0,1,.981,1.236,3.374,3.374,0,0,1,.016,3.02,3.876,3.876,0,0,1-.965,1.23,4.615,4.615,0,0,1-1.436.829,5.277,5.277,0,0,1-3.528,0,4.7,4.7,0,0,1-1.448-.829,3.961,3.961,0,0,1-.984-1.23,3.407,3.407,0,0,1-.372-1.509,3.37,3.37,0,0,1,.342-1.511A3.87,3.87,0,0,1,3.9,3.479a4.61,4.61,0,0,1,1.439-.834A5.18,5.18,0,0,1,7.106,2.339Z" transform="translate(18.396 11.795)" fill="none" stroke="#fff" stroke-linecap="square" stroke-width="5"/>
  <path id="Path_37" data-name="Path 37" d="M46.092,2.359H9.282a8.317,8.317,0,0,0-2.6.407A6.908,6.908,0,0,0,4.579,3.875a5.183,5.183,0,0,0-1.4,1.642,4.1,4.1,0,0,0-.485,2.007L3.4,42.874A3.98,3.98,0,0,0,3.954,44.8a5.281,5.281,0,0,0,1.431,1.569,7.112,7.112,0,0,0,2.095,1.057,8.43,8.43,0,0,0,2.547.387H45.919" transform="translate(0 3.903)" fill="none" stroke="#fff" stroke-linecap="square" stroke-width="5"/>
  <path id="Line_18" data-name="Line 18" d="M2.959,2.369,2.488,55.262" transform="translate(52.481)" fill="none" stroke="#fff" stroke-linecap="square" stroke-width="5"/>
  <path id="Path_38" data-name="Path 38" d="M2.692,2.313H6.005l-.177,10.1" transform="translate(64.869 21.899)" fill="none" stroke="#fff" stroke-linecap="square" stroke-width="5"/>
  <path id="Rectangle_19" data-name="Rectangle 19" d="M4.633,2.266H9.611a2.135,2.135,0,0,1,.772.142,1.964,1.964,0,0,1,.625.388,1.763,1.763,0,0,1,.415.575,1.641,1.641,0,0,1,.142.7l-.108,5.413a1.667,1.667,0,0,1-.17.7,1.85,1.85,0,0,1-.436.57,2.06,2.06,0,0,1-.637.384,2.177,2.177,0,0,1-.774.141H4.488a2.137,2.137,0,0,1-.769-.141,1.967,1.967,0,0,1-.624-.384,1.76,1.76,0,0,1-.416-.57,1.63,1.63,0,0,1-.145-.7l.081-5.413a1.678,1.678,0,0,1,.167-.7A1.853,1.853,0,0,1,3.217,2.8a2.057,2.057,0,0,1,.639-.388A2.175,2.175,0,0,1,4.633,2.266Z" transform="translate(63.391 40.25)" fill="none" stroke="#fff" stroke-linecap="square" stroke-width="5"/>
  <path id="Rectangle_20" data-name="Rectangle 20" d="M4.741,2.359H9.819a2.139,2.139,0,0,1,.788.148,2,2,0,0,1,.638.4,1.833,1.833,0,0,1,.423.6,1.738,1.738,0,0,1,.145.732l-.128,6.413a1.761,1.761,0,0,1-.173.727,1.921,1.921,0,0,1-.445.593,2.094,2.094,0,0,1-.65.4,2.183,2.183,0,0,1-.789.146H4.577a2.142,2.142,0,0,1-.784-.146,2,2,0,0,1-.636-.4,1.829,1.829,0,0,1-.424-.593,1.723,1.723,0,0,1-.148-.727l.1-6.413a1.775,1.775,0,0,1,.171-.732,1.926,1.926,0,0,1,.444-.6,2.093,2.093,0,0,1,.652-.4A2.18,2.18,0,0,1,4.741,2.359Z" transform="translate(63.868 3.949)" fill="none" stroke="#fff" stroke-linecap="square" stroke-width="5"/>
  <path id="Path_39" data-name="Path 39" d="M35.246,3.262l-9.917,10.4L17.065,8.635,5.668,21.154h29.51" transform="translate(10.774 21.902)" fill="none" stroke="#fff" stroke-linecap="square" stroke-width="5"/>
</svg>
