<?xml version="1.0" encoding="iso-8859-1"?>
<!-- Uploaded to: SVG Repo, www.svgrepo.com, Generator: SVG Repo Mixer Tools -->
<svg fill="#000000" height="800px" width="800px" version="1.1" id="Capa_1" xmlns="http://www.w3.org/2000/svg" xmlns:xlink="http://www.w3.org/1999/xlink" 
	 viewBox="0 0 490 490" xml:space="preserve">
<g id="line_8_">
	<polygon points="419.67,355.556 414.77,325.314 65.185,382.2 29.936,218.739 0,225.201 41.374,417.097 	"/>
	<path d="M61.25,316.249H490V72.903H61.25V316.249z M91.875,103.528h367.5v182.112h-367.5V103.528z"/>
	<path d="M277.248,181.667v-27.945c4.471,2.006,7.258,5.819,8.315,11.438l17.548-2.358c-1.194-7.151-3.981-12.847-8.315-17.104
		c-4.349-4.257-10.198-6.845-17.548-7.763v-7.074h-10.06v7.074c-7.947,0.812-14.317,3.874-19.095,9.188
		c-4.777,5.329-7.181,11.867-7.181,19.692c0,7.717,2.113,14.286,6.339,19.676c4.226,5.421,10.872,9.448,19.937,12.127v29.936
		c-2.496-1.24-4.762-3.246-6.783-6.003c-2.037-2.772-3.43-6.064-4.15-9.877l-18.099,2.006c1.378,9.387,4.578,16.645,9.555,21.79
		c4.992,5.16,11.5,8.223,19.478,9.234v13.016h10.06v-13.368c9.004-1.332,16.047-4.946,21.116-10.857
		c5.053-5.911,7.58-13.169,7.58-21.805c0-7.717-2.006-14.042-6.033-18.972C295.884,188.788,288.35,184.761,277.248,181.667z
		 M267.188,178.253c-3.001-1.348-5.237-3.093-6.707-5.268c-1.47-2.174-2.236-4.517-2.236-7.028c0-2.772,0.812-5.298,2.435-7.58
		c1.608-2.282,3.782-3.905,6.508-4.854V178.253z M285.701,224.588c-2.174,2.649-4.977,4.288-8.452,4.961v-27.869
		c4.15,1.24,7.151,3.017,8.973,5.329c1.822,2.312,2.741,5.068,2.741,8.253C288.962,218.831,287.89,221.939,285.701,224.588z"/>
</g>
</svg>