<svg xmlns="http://www.w3.org/2000/svg" width="30.199" height="36.556" viewBox="0 0 30.199 36.556">
  <g id="profile" transform="translate(0 0)">
    <path id="Path_27" data-name="Path 27" d="M24.867,29H15.331A10.343,10.343,0,0,0,5,39.331V40.92a.8.8,0,0,0,.552.757c.208.066,5.193,1.627,14.547,1.627s14.339-1.561,14.547-1.627a.8.8,0,0,0,.552-.757V39.331A10.343,10.343,0,0,0,24.867,29Z" transform="translate(-5 -6.748)" fill="#234aa9"/>
    <path id="Path_28" data-name="Path 28" d="M21.742,20.073c4.923,0,8.742-5.553,8.742-10.331A8.742,8.742,0,1,0,13,9.742C13,14.519,16.819,20.073,21.742,20.073Z" transform="translate(-6.642 -1)" fill="#234aa9"/>
  </g>
</svg>
